# xmcd CD database file
#
# Track frame offsets:
#	150
#	26539
#	44000
#	66941
#	87652
#	108645
#	125410
#	144520
#	164502
#	185143
#	205503
#	225168
#	245474
#	266407
#	285941
#
# Disc length: 4136 seconds
#
# Revision: 0
# Processed by: cddbd v1.5PL3 Copyright (c) Steve Scherf et al.
# Submitted via: CDex 1.50beta10
#
DISCID=d610260f
DTITLE=Salsa Mxi - Vol 1
DYEAR=2004
DGENRE=Salsa
TTITLE0=Amor Mio No Te Vayas
TTITLE1=Raulin Rosendo - La Morena
TTITLE2=SABOR A MELAO
TTITLE3=Como Hare
TTITLE4=Como Tu Me Quiere A Mi
TTITLE5=06-Amor Eterno - Nueva Era
TTITLE6=09-Llamada de Amor - Nelson T
TTITLE7=Como Llora Alma Mia - Fran
TTITLE8=Arrepetidos Pecadores
TTITLE9=Junior Gonzalez - La Chica Ideal
TTITLE10=T. M. C. - Muriendome De Amor
TTITLE11=Advina Que es
TTITLE12=PA COMERTE
TTITLE13=YO SOY EL JEFE
TTITLE14=Tumbame
EXTD=YEAR: 2004
EXTT0=
EXTT1=
EXTT2=
EXTT3=
EXTT4=
EXTT5=
EXTT6=
EXTT7=
EXTT8=
EXTT9=
EXTT10=
EXTT11=
EXTT12=
EXTT13=
EXTT14=
PLAYORDER=
